<svg preserveAspectRatio="none" overflow="visible" style="display: block;" width="1200" height="675" viewBox="0 0 1200 675" fill="none" xmlns="http://www.w3.org/2000/svg">
<g id="&#236;&#132;&#184;&#236;&#133;&#152;2" clip-path="url(#clip0_0_138)">
<rect width="1200" height="675" fill="white"/>
<rect id="Rectangle 240654108" x="176" y="445.5" width="10.5" height="119.25" rx="5.25" fill="#6B5353"/>
<path id="Rectangle 240654106" d="M186.5 474.75C186.5 454.039 203.289 437.25 224 437.25H242V437.25C242 457.961 225.211 474.75 204.5 474.75H186.5V474.75Z" fill="#4B843F"/>
<path id="Rectangle 240654107" d="M176 506.25C176 485.539 159.211 468.75 138.5 468.75H119V468.75C119 489.461 135.789 506.25 156.5 506.25H176V506.25Z" fill="#4B843F"/>
<circle id="Ellipse 434" cx="663.5" cy="506.5" r="88.5" fill="#FFEADB"/>
<rect id="Rectangle 240654099" x="439" y="562.5" width="90" height="129.75" rx="7.5" fill="#2D3034"/>
<rect id="Rectangle 240654073" x="445" y="339.75" width="76.5" height="57" rx="28.5" fill="#B6B6B6"/>
<path id="Rectangle 240654072" d="M423.25 453C423.25 419.863 450.113 393 483.25 393V393C516.387 393 543.25 419.863 543.25 453V527.25C543.25 547.961 526.461 564.75 505.75 564.75H439C430.302 564.75 423.25 557.698 423.25 549V453Z" fill="#B6B6B6"/>
<path id="Rectangle 240654098" d="M409 620.492C409 603.375 422.875 589.5 439.992 589.5H556.5C570.307 589.5 581.5 600.693 581.5 614.5V614.5C581.5 621.404 575.904 627 569 627H415.508C411.914 627 409 624.086 409 620.492V620.492Z" fill="#B6B6B6"/>
<rect id="Rectangle 240654075" x="506.5" y="354" width="30" height="66.75" fill="#F7BBB0"/>
<rect id="Rectangle 240654050" x="506.5" y="378.75" width="30" height="66" fill="#444444"/>
<rect id="Rectangle 240654055" x="520.75" y="537" width="75" height="162" rx="15" fill="#486DE6"/>
<rect id="Rectangle 240654053" x="469" y="477" width="105" height="105" rx="52.5" fill="#486DE6"/>
<rect id="Rectangle 240654048" x="476.5" y="234.75" width="90" height="135" rx="37.5" fill="#F7BBB0"/>
<rect id="Rectangle 240654054" x="476.5" y="304.5" width="105" height="65.25" rx="32.625" fill="#F7BBB0"/>
<path id="Rectangle 240654051" d="M491.5 242.25C491.5 221.539 508.289 204.75 529 204.75H581.5V227.25C581.5 247.961 564.711 264.75 544 264.75H491.5V242.25Z" fill="#FBDF62"/>
<path id="Rectangle 240654104" d="M179.75 552.75C179.75 532.039 196.539 515.25 217.25 515.25H269.75V537.75C269.75 558.461 252.961 575.25 232.25 575.25H179.75V552.75Z" fill="#4B843F"/>
<path id="Rectangle 240654105" d="M179.75 552.75C179.75 532.039 162.961 515.25 142.25 515.25H89.75V537.75C89.75 558.461 106.539 575.25 127.25 575.25H179.75V552.75Z" fill="#4B843F"/>
<path id="Rectangle 240654052" d="M476.5 257.25C476.5 248.966 483.216 242.25 491.5 242.25V242.25V279.75C491.5 288.034 484.784 294.75 476.5 294.75V294.75V257.25Z" fill="#FBDF62"/>
<path id="Rectangle 240654049" d="M461.5 444.75C461.5 411.613 488.363 384.75 521.5 384.75C554.637 384.75 581.5 411.613 581.5 444.75V504.75C581.5 521.319 568.069 534.75 551.5 534.75H491.5C474.931 534.75 461.5 521.319 461.5 504.75V444.75Z" fill="#444444"/>
<rect id="Rectangle 240654059" x="506.5" y="294.75" width="15" height="20.25" rx="7.5" fill="#2B2B2B"/>
<rect id="Rectangle 240654060" x="536.5" y="294.75" width="15" height="20.25" rx="7.5" fill="#2B2B2B"/>
<rect id="Rectangle 240654063" x="531.25" y="303" width="12" height="12" rx="6" fill="#FF8C77"/>
<rect id="Rectangle 240654065" x="506.5" y="279.75" width="15" height="6" rx="3" fill="#FBDF62"/>
<rect id="Rectangle 240654076" x="462.976" y="432" width="28.5" height="78.1479" transform="rotate(15 462.976 432)" fill="#444444"/>
<rect id="Rectangle 240654077" x="546.25" y="427.402" width="28.5" height="78.1479" transform="rotate(-45 546.25 427.402)" fill="#444444"/>
<rect id="Rectangle 240654196" x="827.804" y="456.971" width="28.5" height="122.343" transform="rotate(69.0436 827.804 456.971)" fill="#4B843F"/>
<rect id="Rectangle 240654069" x="633.625" y="375.75" width="59.25" height="89.25" rx="7.5" transform="rotate(30 633.625 375.75)" fill="#998F8F"/>
<path id="Rectangle 240654070" d="M676.493 400.5L678.441 401.625C682.029 403.696 683.258 408.283 681.187 411.87L644.062 476.173C641.991 479.76 637.404 480.989 633.816 478.918L631.868 477.793L676.493 400.5Z" fill="#B6B6B6"/>
<rect id="Rectangle 240654066" x="536.5" y="279.75" width="15" height="6" rx="3" fill="#FBDF62"/>
<rect id="Rectangle 240654067" x="428.5" y="489.75" width="45" height="45" rx="22.5" fill="#F7BBB0"/>
<rect id="Rectangle 240654116" x="461.5" y="296.25" width="30" height="30" rx="15" fill="#F7BBB0"/>
<rect id="Rectangle 240654068" x="592" y="449.25" width="45" height="45" rx="22.5" fill="#F7BBB0"/>
<rect id="Rectangle 240654194" x="694" y="492" width="45" height="45" rx="22.5" fill="#F7BBB0"/>
<rect id="Rectangle 240654080" x="1046" y="609" width="30" height="174.75" fill="#444444"/>
<rect id="Rectangle 240654078" x="338" y="568.5" width="754.5" height="41.25" rx="15" fill="#444444"/>
<rect id="Rectangle 240654074" x="320.75" y="553.5" width="789.75" height="41.25" rx="15" fill="#EBC9A1"/>
<rect id="Rectangle 240654079" x="356" y="609" width="30" height="174.75" fill="#444444"/>
<rect id="Rectangle 240654100" x="529" y="659.25" width="93" height="33.75" rx="15" fill="#2D3034"/>
<rect id="Rectangle 240654101" x="99.5" y="594.75" width="161.25" height="183" rx="15" fill="#998F8F"/>
<rect id="Rectangle 240654103" x="89" y="574.5" width="182.25" height="52.5" rx="15" fill="#998F8F"/>
<path id="Ellipse 435" d="M522.14 324.75C518.887 324.75 516.147 327.485 517.392 330.49C518.146 332.31 519.251 333.964 520.643 335.357C522.036 336.749 523.69 337.854 525.51 338.608C527.33 339.362 529.28 339.75 531.25 339.75C533.22 339.75 535.17 339.362 536.99 338.608C538.81 337.854 540.464 336.749 541.857 335.357C543.249 333.964 544.354 332.31 545.108 330.49C546.353 327.485 543.613 324.75 540.36 324.75L531.25 324.75L522.14 324.75Z" fill="#973D35"/>
<path id="Rectangle 240654061" d="M536.5 315C536.5 326.184 545.566 335.25 556.75 335.25H566.5V335.25C566.5 324.066 557.434 315 546.25 315H536.5V315Z" fill="#FBDF62"/>
<path id="Rectangle 240654062" d="M536.5 315C536.5 326.184 527.434 335.25 516.25 335.25H506.5V335.25C506.5 324.066 515.566 315 526.75 315H536.5V315Z" fill="#FBDF62"/>
<rect id="Rectangle 240654117" x="826" y="424.25" width="30" height="66.75" fill="#F7BBB0"/>
<rect id="Rectangle 240654118" x="804" y="607.25" width="75" height="162" rx="15" fill="black"/>
<rect id="Rectangle 240654119" x="788.5" y="547.25" width="105" height="105" rx="52.5" fill="black"/>
<rect id="Rectangle 240654120" width="90" height="135" rx="37.5" transform="matrix(-1 0 0 1 886 305)" fill="#F7BBB0"/>
<rect id="Rectangle 240654121" width="105" height="65" rx="32.5" transform="matrix(-1 0 0 1 886 375)" fill="#F7BBB0"/>
<rect id="Rectangle 240654197" x="868" y="498.377" width="28.5" height="122.343" transform="rotate(-15 868 498.377)" fill="#4B843F"/>
<path id="Rectangle 240654123" d="M886 336C886 327.716 879.284 321 871 321V321V350C871 358.284 877.716 365 886 365V365V336Z" fill="#565656"/>
<path id="Rectangle 240654124" d="M781 515C781 481.863 807.863 455 841 455C874.137 455 901 481.863 901 515V575C901 591.569 887.569 605 871 605H811C794.431 605 781 591.569 781 575V515Z" fill="#4B843F"/>
<rect id="Rectangle 240654125" width="15" height="20" rx="7.5" transform="matrix(-1 0 0 1 856 365)" fill="#2B2B2B"/>
<rect id="Rectangle 240654126" width="15" height="20" rx="7.5" transform="matrix(-1 0 0 1 826 365)" fill="#2B2B2B"/>
<rect id="Rectangle 240654127" width="12" height="12" rx="6" transform="matrix(-1 0 0 1 831 373)" fill="#FF8C77"/>
<rect id="Rectangle 240654128" width="15" height="6" rx="3" transform="matrix(-1 0 0 1 856 350)" fill="#565656"/>
<rect id="Rectangle 240654129" width="15" height="6" rx="3" transform="matrix(-1 0 0 1 826 350)" fill="#565656"/>
<rect id="Rectangle 240654130" width="30" height="30" rx="15" transform="matrix(-1 0 0 1 901 367)" fill="#F7BBB0"/>
<path id="Ellipse 436" d="M840.11 395C843.363 395 846.103 397.735 844.858 400.74C844.104 402.56 842.999 404.214 841.607 405.607C840.214 406.999 838.56 408.104 836.74 408.858C834.92 409.612 832.97 410 831 410C829.03 410 827.08 409.612 825.26 408.858C823.44 408.104 821.786 406.999 820.393 405.607C819.001 404.214 817.896 402.56 817.142 400.74C815.897 397.735 818.637 395 821.89 395L831 395L840.11 395Z" fill="#973D35"/>
<path id="Rectangle 240654193" d="M796 332C796 315.431 809.431 302 826 302H856C872.569 302 886 315.431 886 332V341H796V332Z" fill="#565656"/>
<rect id="Rectangle 240654195" x="889" y="586" width="45" height="45" rx="22.5" fill="#F7BBB0"/>
<path id="Union" d="M703.485 296.515C708.172 291.829 715.77 291.829 720.456 296.515L743.083 319.142C743.164 319.223 743.243 319.305 743.321 319.388C745.588 321.571 747 324.634 747 328.029C747 329.842 746.595 331.559 745.875 333.1C745.295 334.7 744.366 336.203 743.083 337.486L720.456 360.112C715.77 364.799 708.172 364.799 703.485 360.112C698.799 355.426 698.799 347.828 703.485 343.142L706.598 340.029H679C672.373 340.029 667 334.657 667 328.029C667 321.402 672.373 316.029 679 316.029H706.029L703.485 313.486C698.799 308.799 698.799 301.201 703.485 296.515Z" fill="#486DE6"/>
<path id="Union_2" d="M683.515 293.112C678.828 297.799 671.23 297.799 666.544 293.112L643.917 270.485C643.836 270.405 643.757 270.322 643.679 270.239C641.412 268.056 640 264.993 640 261.598C640 259.785 640.405 258.068 641.125 256.527C641.705 254.927 642.634 253.425 643.917 252.142L666.544 229.515C671.23 224.828 678.828 224.828 683.515 229.515C688.201 234.201 688.201 241.799 683.515 246.485L680.402 249.598L708 249.598C714.627 249.598 720 254.97 720 261.598C720 268.225 714.627 273.598 708 273.598L680.971 273.598L683.515 276.142C688.201 280.828 688.201 288.426 683.515 293.112Z" fill="#486DE6"/>
</g>
<defs>
<clipPath id="clip0_0_138">
<rect width="1200" height="675" fill="white"/>
</clipPath>
</defs>
</svg>
